<?xml version="1.0" standalone="no"?>
<!DOCTYPE svg PUBLIC "-//W3C//DTD SVG 20010904//EN"
 "http://www.w3.org/TR/2001/REC-SVG-20010904/DTD/svg10.dtd">
<svg version="1.0" xmlns="http://www.w3.org/2000/svg"
 width="1280.000000pt" height="1280.000000pt" viewBox="0 0 1280.000000 1280.000000"
 preserveAspectRatio="xMidYMid meet">

<g transform="translate(0.000000,1280.000000) scale(0.100000,-0.100000)"
fill="#000000" stroke="none">
<path d="M7715 7013 c-16 -2 -55 -11 -86 -19 -50 -12 -62 -12 -99 1 -60 21
-87 19 -115 -10 -20 -19 -25 -34 -25 -73 0 -61 -10 -112 -21 -112 -5 0 -9 7
-9 15 0 24 -35 87 -62 111 -64 59 -143 71 -177 28 -12 -15 -21 -34 -21 -43 0
-10 -21 -46 -47 -81 l-48 -64 -5 52 c-7 64 -48 112 -135 153 -68 33 -83 35
-110 15 -13 -9 -39 -12 -84 -9 -52 4 -74 0 -103 -15 l-38 -20 -65 24 c-37 13
-88 24 -116 24 -46 0 -54 -4 -100 -47 -62 -58 -146 -168 -188 -247 -77 -146
-79 -254 -5 -368 l18 -26 -47 -45 c-108 -106 -72 -242 85 -312 53 -24 80 -29
168 -33 130 -5 203 17 262 80 20 22 39 35 42 30 10 -16 88 -49 133 -56 55 -8
90 9 105 50 l12 34 31 -19 c48 -28 122 -50 205 -59 91 -11 133 -2 171 34 l29
28 28 -26 c61 -58 165 -87 218 -62 23 11 37 12 58 4 15 -5 51 -10 81 -10 29 0
82 -7 117 -16 53 -14 73 -15 127 -5 69 13 185 67 215 100 25 28 33 27 61 -8
54 -63 194 -94 238 -53 l23 22 34 -25 c46 -34 90 -40 173 -25 102 18 213 79
307 167 43 40 81 73 84 73 3 0 6 -17 6 -37 0 -44 28 -110 56 -135 33 -29 109
-58 158 -60 76 -2 87 16 91 148 2 77 12 149 34 244 26 113 31 155 31 264 0 78
-4 126 -9 121 -13 -14 -109 -429 -127 -548 -8 -55 -12 -113 -8 -130 6 -29 5
-29 -27 -22 -160 35 -166 114 -48 590 28 110 53 229 57 265 7 60 9 65 30 62
28 -4 79 -27 110 -49 l23 -16 -3 44 c-3 41 -6 45 -50 67 -67 34 -118 39 -147
15 -20 -16 -25 -32 -31 -104 -12 -120 -16 -128 -50 -81 -55 76 -136 127 -251
158 -79 21 -286 24 -341 5 -34 -11 -44 -10 -102 13 -112 45 -155 28 -164 -62
l-5 -52 -47 44 c-51 48 -111 78 -189 95 -49 10 -251 13 -316 4z m359 -88 c28
-10 69 -37 96 -64 38 -37 50 -56 59 -97 12 -59 1 -145 -24 -194 -22 -43 -89
-115 -131 -141 -36 -22 -44 -39 -19 -39 24 0 83 -59 96 -97 33 -100 -35 -205
-173 -268 -100 -46 -192 -45 -248 1 -25 22 -30 23 -30 9 0 -15 -9 -17 -64 -13
-83 5 -106 24 -106 85 0 36 123 550 145 605 6 14 1 16 -29 15 -41 -2 -33 16
-85 -192 -52 -210 -83 -368 -86 -443 -1 -40 -5 -75 -7 -77 -12 -12 -86 21
-116 51 l-35 35 6 107 c4 84 19 161 67 357 34 138 64 276 67 308 3 32 9 59 12
61 3 2 26 -3 51 -11 40 -14 52 -14 125 2 44 9 85 19 90 21 6 2 73 2 150 0 103
-2 153 -8 189 -21z m341 -8 c17 -6 40 -18 52 -28 22 -16 25 -16 65 4 34 17 60
21 152 21 128 0 198 -14 279 -57 171 -90 205 -279 90 -506 -45 -88 -161 -217
-247 -273 -109 -71 -254 -99 -291 -58 -10 11 -24 20 -30 20 -7 0 -25 10 -40
22 -26 20 -27 25 -22 82 2 34 32 170 66 304 33 133 61 247 61 254 0 6 -8 4
-18 -5 -23 -21 -32 -21 -32 -1 0 116 -138 -459 -144 -604 -2 -40 -6 -75 -8
-77 -11 -12 -86 21 -115 50 -31 31 -33 37 -33 108 0 83 17 173 84 447 26 102
49 210 52 240 9 88 4 85 79 57z m-1935 -34 c51 -25 62 -28 72 -16 20 25 66 43
107 43 31 0 49 -7 76 -32 40 -34 55 -28 55 21 0 20 3 22 27 16 29 -7 80 -40
101 -65 19 -22 9 -90 -33 -231 -20 -66 -34 -123 -32 -125 6 -6 169 181 240
274 31 43 63 92 69 110 7 17 17 32 23 32 22 0 75 -41 90 -69 38 -74 12 -115
-189 -304 -168 -158 -221 -220 -207 -244 27 -52 183 -103 314 -103 55 0 77 -4
77 -13 0 -7 -15 -35 -34 -63 -46 -69 -75 -80 -170 -65 -109 16 -182 46 -233
98 -24 24 -48 41 -53 38 -13 -8 -30 -73 -30 -112 0 -18 -5 -33 -11 -33 -34 0
-93 27 -115 53 -48 57 -33 156 82 513 74 233 77 250 35 210 -65 -63 -131 -233
-133 -345 l-1 -63 -71 5 c-39 2 -84 10 -100 16 -28 11 -29 12 -23 74 3 34 18
100 32 145 30 95 30 126 -1 130 -45 6 -162 -174 -196 -301 -11 -42 -10 -51 7
-83 10 -19 62 -71 116 -114 113 -93 139 -125 139 -173 0 -65 -59 -108 -167
-122 -96 -13 -250 34 -287 87 -9 12 -16 41 -16 63 0 32 6 47 28 67 34 32 65
48 92 48 16 0 19 -5 15 -23 -13 -49 78 -116 158 -117 30 0 37 4 37 19 0 24
-14 38 -107 107 -84 63 -147 125 -171 169 -10 18 -16 55 -17 95 0 103 66 228
195 364 54 57 56 58 102 54 27 -3 75 -18 108 -35z m831 -350 c-22 -87 -42
-182 -46 -209 -11 -73 -17 -77 -99 -69 -72 7 -196 40 -196 52 0 7 373 390 378
387 1 -1 -15 -73 -37 -161z m-967 -108 l6 -40 -18 22 c-13 14 -18 31 -14 48 6
34 18 21 26 -30z m183 -96 c13 -5 21 -14 19 -21 -3 -7 -7 -26 -10 -41 l-7 -28
-74 61 c-41 34 -75 63 -75 64 0 4 120 -25 147 -35z"/>
<path d="M7814 6738 c22 -31 20 -77 -9 -197 -14 -58 -24 -108 -23 -113 5 -15
133 67 185 120 87 87 94 166 18 198 -20 8 -67 14 -110 14 l-76 0 15 -22z m131
-58 c23 -9 25 -12 14 -32 -15 -29 -50 -68 -61 -68 -7 0 -2 65 8 98 4 15 6 15
39 2z"/>
<path d="M7780 6296 c-29 -11 -37 -20 -47 -57 -16 -63 -16 -96 3 -103 34 -13
140 -5 180 13 75 34 98 101 48 140 -31 24 -125 28 -184 7z m130 -66 c0 -15
-36 -30 -75 -30 -24 0 -35 4 -33 12 8 22 108 39 108 18z"/>
<path d="M8690 6741 c0 -6 5 -13 10 -16 19 -12 10 -88 -35 -273 -60 -252 -63
-272 -39 -272 11 0 47 13 82 30 179 84 292 315 220 449 -33 62 -90 91 -175 91
-34 0 -63 -4 -63 -9z m162 -102 c29 -29 30 -33 26 -92 -7 -77 -34 -134 -101
-204 -73 -77 -79 -71 -51 45 13 53 31 133 40 177 9 44 18 86 20 93 6 21 34 13
66 -19z"/>
<path d="M3574 6988 c-15 -16 -23 -42 -27 -88 -3 -36 -33 -177 -66 -315 -59
-249 -81 -364 -81 -427 0 -125 98 -218 233 -220 39 0 67 18 79 53 2 6 16 5 38
-5 19 -8 55 -17 80 -21 38 -5 50 -3 73 15 15 12 27 29 27 39 0 29 9 30 53 6
92 -50 273 -73 333 -42 56 29 121 118 138 189 l6 28 53 -30 c28 -16 71 -32 95
-36 47 -7 50 -13 25 -55 -22 -37 -40 -43 -69 -24 -33 22 -61 19 -89 -10 -30
-29 -32 -72 -6 -123 24 -48 45 -66 106 -93 145 -64 280 19 385 236 26 55 53
118 60 140 7 22 19 55 27 73 l14 34 31 -46 c46 -71 119 -120 197 -132 45 -7
48 -12 26 -53 -19 -38 -38 -44 -74 -23 -59 33 -121 -18 -107 -90 11 -58 46
-100 109 -132 154 -77 287 2 402 239 104 214 198 614 182 773 -10 99 -82 145
-230 146 -95 1 -102 -8 -110 -156 -5 -104 -34 -289 -58 -380 -8 -30 -15 -38
-32 -38 -58 0 -60 40 -11 244 26 108 34 162 29 190 -15 100 -86 149 -212 149
-51 0 -79 -5 -98 -17 -24 -16 -33 -16 -73 -5 -25 7 -77 13 -115 13 -90 1 -107
-16 -107 -110 0 -80 -25 -262 -51 -376 -19 -79 -23 -88 -44 -88 -56 0 -57 52
-5 264 23 93 30 140 26 169 -14 84 -62 130 -158 147 -72 14 -146 0 -173 -33
-20 -24 -20 -24 -50 -6 -61 38 -145 11 -145 -47 0 -10 -22 -48 -48 -83 -45
-61 -47 -63 -50 -35 -8 83 -47 133 -137 176 -87 41 -122 34 -145 -27 l-11 -28
-22 21 c-30 28 -106 61 -159 68 -37 5 -46 2 -64 -18z m131 -76 c54 -26 75 -52
75 -92 0 -21 -24 -138 -54 -261 -70 -287 -98 -431 -94 -494 1 -27 -2 -50 -7
-50 -40 1 -89 21 -114 46 -58 58 -51 147 44 529 31 124 58 253 62 287 6 61 6
63 32 56 14 -3 40 -12 56 -21z m905 8 c62 -33 66 -80 21 -255 -34 -134 -40
-228 -15 -263 37 -54 115 -67 162 -28 24 21 32 41 50 123 32 146 43 217 50
328 l7 100 59 -3 c72 -3 107 -18 124 -55 26 -54 -22 -345 -94 -568 -96 -297
-219 -443 -347 -408 -43 11 -92 53 -102 86 -6 22 -6 22 30 7 33 -14 40 -13 73
3 43 21 79 72 116 165 36 92 35 101 -11 77 -105 -53 -228 1 -284 126 -31 68
-31 223 -1 387 12 64 22 133 22 152 0 24 5 36 18 39 21 7 102 -2 122 -13z
m680 0 c8 -5 24 -18 35 -30 27 -29 24 -75 -14 -230 -48 -192 -41 -259 29 -295
45 -23 86 -19 120 13 24 22 33 43 49 117 28 129 51 293 51 364 0 74 5 77 92
62 91 -16 104 -32 100 -133 -6 -197 -84 -499 -179 -696 -47 -96 -130 -185
-188 -201 -70 -19 -162 25 -180 86 -6 22 -6 22 30 7 33 -14 40 -13 73 3 20 10
49 36 63 58 31 46 79 160 79 186 0 16 -3 15 -37 -2 -74 -38 -174 -18 -234 48
-82 88 -95 215 -48 472 10 58 19 122 19 142 0 27 5 39 18 42 21 7 102 -2 122
-13z m-1331 -20 c22 -11 49 -32 61 -47 27 -34 23 -69 -26 -232 -19 -62 -33
-118 -32 -123 4 -11 177 186 253 287 25 33 50 75 57 93 14 37 18 38 59 17 37
-20 69 -70 69 -110 0 -41 -35 -82 -243 -286 -97 -96 -177 -180 -177 -188 0
-25 59 -68 127 -91 46 -15 102 -24 171 -28 56 -2 102 -6 102 -9 0 -12 -42 -82
-63 -105 -34 -36 -62 -42 -146 -29 -106 17 -178 47 -228 97 -24 24 -46 44 -49
44 -12 0 -34 -72 -34 -110 0 -25 -5 -40 -12 -40 -36 0 -87 23 -114 51 -53 55
-39 145 79 514 36 110 70 226 77 258 6 31 16 57 21 57 5 0 27 -9 48 -20z m411
-540 c7 -25 18 -57 26 -71 13 -27 13 -27 -31 -33 -76 -12 -285 27 -285 52 0 4
60 67 133 140 l132 132 6 -87 c4 -49 12 -108 19 -133z"/>
</g>
</svg>
